# xmcd
#
# Track frame offsets:
#	150
#	13322
#	27838
#	44946
#	61329
#	77629
#	90982
#	107853
#	122564
#	142040
#	155094
#	169840
#	185938
#	201283
#	216084
#	230964
#	247110
#	259942
#	275447
#	290005
#
# Disc length: 4077 seconds
#
# Revision: 1
# Processed by: cddbd v1.4PL0 Copyright (c) Steve Scherf et al.
# Submitted via: EasyCDDAExtractor 6.0.0.1
#
DISCID=400feb14
DTITLE=T.G. Sheppard - The Very Best of
DYEAR=2002
DGENRE=Country
TTITLE0=Devil In The Bottle
TTITLE1=Do You Wanna Go To Heaven
TTITLE2=Finally
TTITLE3=Half Past Forever
TTITLE4=I Loved 'Em Every One
TTITLE5=I'll Be Coming Back For More
TTITLE6=Last Cheater's Waltz
TTITLE7=Motels and Memories
TTITLE8=One for the Money
TTITLE9=One Owner Heart
TTITLE10=Only One You
TTITLE11=Party Time
TTITLE12=Slow Burn
TTITLE13=Smooth Sailing
TTITLE14=Somewhere Down the Line
TTITLE15=Strong Heart
TTITLE16=Trying To Beat the Morning Home
TTITLE17=War Is Hell (On the Homefront, Too)
TTITLE18=You Fell Good All Over
TTITLE19=You're My First Lady
EXTD=
EXTT0=
EXTT1=
EXTT2=
EXTT3=
EXTT4=
EXTT5=
EXTT6=
EXTT7=
EXTT8=
EXTT9=
EXTT10=
EXTT11=
EXTT12=
EXTT13=
EXTT14=
EXTT15=
EXTT16=
EXTT17=
EXTT18=
EXTT19=
PLAYORDER=
